Coordinates
version=1
nRows=5
nColumns=40
inDegrees=yes

Units are S.I. units (second, meters, Newtons, ...)
Angles are in degrees.

endheader
time	pelvis_tilt	pelvis_list	pelvis_rotation	pelvis_tx	pelvis_ty	pelvis_tz	hip_flexion_r	hip_adduction_r	hip_rotation_r	knee_angle_r	knee_angle_r_beta	ankle_angle_r	subtalar_angle_r	mtp_angle_r	hip_flexion_l	hip_adduction_l	hip_rotation_l	knee_angle_l	knee_angle_l_beta	ankle_angle_l	subtalar_angle_l	mtp_angle_l	lumbar_extension	lumbar_bending	lumbar_rotation	arm_flex_r	arm_add_r	arm_rot_r	elbow_flex_r	pro_sup_r	wrist_flex_r	wrist_dev_r	arm_flex_l	arm_add_l	arm_rot_l	elbow_flex_l	pro_sup_l	wrist_flex_l	wrist_dev_l
     45.08250000	     -6.19430303	     -4.78641581	     -1.48020973	      0.85408941	      0.91946942	      0.50528311	     23.36324159	      2.57599874	    -13.83073875	     20.70283936	     20.70283936	      5.44101235	     -3.93069884	     -4.95003947	     20.70738959	    -11.58058061	     -1.63011684	     54.69509591	     54.69509591	     17.25760867	    -19.32693390	     15.93336637	    -11.09862778	      7.27061664	      1.68062688	      0.95472314	    -13.57487141	     -9.92147711	     27.54631364	     46.92917359	      0.00000000	      0.00000000	      1.06861898	     -8.75575804	    -11.23428340	     60.29118351	     46.47377085	      0.00000000	      0.00000000
     45.09571429	     -6.21993291	     -4.82327199	     -1.35628603	      0.85329759	      0.92062976	      0.50775241	     22.62597039	      2.80497131	    -14.07398715	     20.04593015	     20.04593015	      5.60785088	     -3.47224682	     -5.33633513	     22.49441076	    -11.76652522	     -1.00112817	     56.69687104	     56.69687104	     17.97529077	    -19.36732820	     19.97740799	    -11.12567451	      7.25946742	      1.73103845	      2.16574976	    -13.63148440	     -8.81351462	     29.17522265	     46.75271518	      0.00000000	      0.00000000	      0.84769525	     -8.91548712	    -10.73169610	     59.87644557	     46.46516623	      0.00000000	      0.00000000
     45.10892857	     -6.27464205	     -4.94070137	     -1.27143956	      0.85243003	      0.92162521	      0.51030863	     21.93039406	      3.16473798	    -14.20540214	     19.38875083	     19.38875083	      5.83979915	     -3.19559507	     -5.33865532	     24.09666075	    -12.15426912	     -0.59567416	     57.91717219	     57.91717219	     17.57003588	    -19.41082290	     20.12882259	    -11.11966222	      7.29529470	      1.95668083	      3.62198784	    -13.60157390	     -8.56319099	     30.01449772	     46.70466454	      0.00000000	      0.00000000	      0.66868869	     -8.93338920	    -10.58377288	     59.55947203	     46.45512968	      0.00000000	      0.00000000
     45.12214286	     -6.28892110	     -4.94471808	     -1.22504337	      0.85145447	      0.92261460	      0.51276467	     21.27220729	      3.39303744	    -14.26071720	     18.87002000	     18.87002000	      6.03486941	     -2.91189461	     -5.37813059	     25.52679384	    -12.37158610	     -0.23354190	     58.55357369	     58.55357369	     17.38625974	    -19.43312832	     20.41381711	    -11.17297627	      7.19209653	      2.18106542	      5.15232784	    -13.56933843	     -8.26370324	     30.92542279	     46.65170349	      0.00000000	      0.00000000	      0.45315332	     -9.01655897	    -10.48311951	     59.16304086	     46.44750994	      0.00000000	      0.00000000
     45.13535714	     -6.31336088	     -4.92587987	     -1.19549512	      0.85037636	      0.92349258	      0.51507930	     20.64318673	      3.58336544	    -14.34311475	     18.36932921	     18.36932921	      6.19913690	     -2.62439631	     -5.42066793	     26.85757223	    -12.52887805	      0.09702091	     58.64851112	     58.64851112	     17.39422028	    -19.44751766	     20.77054617	    -11.22568154	      7.06472701	      2.26133733	      6.75885898	    -13.54854238	     -7.81181246	     31.98609972	     46.58184878	      0.00000000	      0.00000000	      0.21780378	     -9.14518827	    -10.44200841	     58.60457210	     46.44413245	      0.00000000	      0.00000000
